<svg width="101" height="45" viewBox="0 0 101 45" fill="none" xmlns="http://www.w3.org/2000/svg">
<path d="M68.4655 29.4291C68.3845 29.345 68.3067 29.2609 68.2319 29.1737C68.3067 29.2671 68.3908 29.3512 68.4655 29.4291Z" fill="#252D69"/>
<path d="M64.8652 36.9654C65.6469 35.6387 66.3943 34.2778 67.1043 32.8951C66.3943 34.2778 65.6469 35.6387 64.8652 36.9654Z" fill="#252D69"/>
<path d="M68.7019 29.6595C68.3157 30.4941 67.914 31.3193 67.5029 32.1508C67.914 31.3287 68.3157 30.5034 68.7019 29.6595Z" fill="#252D69"/>
<path d="M65.4385 45C67.0501 45 68.3565 43.6936 68.3565 42.082C68.3565 40.4704 67.0501 39.164 65.4385 39.164C63.8269 39.164 62.5205 40.4704 62.5205 42.082C62.5205 43.6936 63.8269 45 65.4385 45Z" fill="#252D69"/>
<path d="M91.7535 45C93.365 45 94.6714 43.6936 94.6714 42.082C94.6714 40.4704 93.365 39.164 91.7535 39.164C90.1419 39.164 88.8354 40.4704 88.8354 42.082C88.8354 43.6936 90.1419 45 91.7535 45Z" fill="#252D69"/>
<path d="M67.2012 5.82666C67.2012 15.2658 72.6417 24.3436 74.7842 27.4983C75.0339 27.8665 75.3699 28.168 75.7629 28.3765C76.1559 28.5849 76.594 28.694 77.0389 28.6941H90.8316C91.2765 28.694 91.7146 28.5849 92.1076 28.3765C92.5006 28.168 92.8366 27.8665 93.0863 27.4983C95.2288 24.3436 100.669 15.2658 100.669 5.82666H67.2012Z" fill="#00A0DC"/>
<path d="M56.395 9.71313H59.6307C60.0848 12.1731 60.7368 14.5923 61.5801 16.9474C60.7368 14.5923 60.0848 12.1731 59.6307 9.71313H56.395Z" fill="#252D69"/>
<path d="M79.2438 12.6125C80.231 8.56402 80.6172 5.85779 80.6172 5.85779H75.8369C75.5165 8.55066 75.0172 11.2192 74.3421 13.8457C74.2922 14.0481 74.2393 14.2505 74.1864 14.4685C73.5137 17.0408 72.676 19.7221 71.695 22.4315C71.3462 23.3824 70.9788 24.3363 70.5926 25.2934L70.4307 25.1221L70.3217 25.01C69.0535 22.9639 67.9617 20.8136 67.058 18.5824C67.0268 18.5107 66.9988 18.436 66.9677 18.3613C66.8057 17.9564 66.6563 17.536 66.485 17.1156C65.156 13.5209 64.2977 9.7693 63.9313 5.95433V5.91696H56.395V9.7225H59.6307C60.0848 12.1824 60.7368 14.6017 61.5801 16.9567C63.073 21.1701 65.187 25.1367 67.8521 28.7253C67.9704 28.8841 68.0981 29.0367 68.232 29.1893C68.3068 29.2765 68.3846 29.3606 68.4656 29.4446L68.6898 29.6689C68.3037 30.5035 67.9019 31.3287 67.4909 32.1602C67.3632 32.4125 67.2355 32.6647 67.1047 32.9138C66.3947 34.2965 65.6473 35.6574 64.8656 36.9841H69.2566C70.2345 35.5204 71.1251 33.9976 71.9597 32.4498C72.894 30.7246 73.713 28.9651 74.4511 27.2149C75.3853 25.0069 76.2137 22.8145 76.9144 20.7218C77.0545 20.3014 77.1916 19.8872 77.3223 19.4761C77.4531 19.0651 77.5777 18.6602 77.6992 18.2585C78.0666 17.0564 78.3936 15.9042 78.6801 14.8329C78.8649 14.1436 79.0331 13.4844 79.1846 12.8554L79.2438 12.6125Z" fill="#252D69"/>
<path d="M11.1644 30.326C6.29377 30.326 3.42561 27.8128 3.42561 21.9394V9.61972H0V5.73322H3.42561V0.236676L8.24948 0V5.73322H14.2225V9.61972H8.24948V21.8896C8.24948 25.0661 9.6353 26.2962 11.9865 26.2962C12.9192 26.2976 13.8488 26.1868 14.755 25.9661L15.0415 29.8495C13.7743 30.1704 12.4716 30.3305 11.1644 30.326Z" fill="#252D69"/>
<path d="M29.9117 5.16643C31.0505 5.15775 32.1872 5.26838 33.303 5.49653L32.6366 9.52318C31.8613 9.29454 31.0562 9.18327 30.248 9.19307C27.8594 9.19307 26.0438 9.71314 24.7047 10.4232V29.756H19.8809V7.43979C22.366 6.07266 26.2338 5.16643 29.9117 5.16643Z" fill="#252D69"/>
<path d="M44.6013 30.3259C38.3449 30.3259 35.1934 27.2927 35.1934 23.1228C35.1934 18.1961 39.1577 15.7795 44.6013 15.7795C46.3024 15.7817 47.9989 15.9559 49.665 16.2996V14.3096C49.665 10.993 47.8494 9.19303 44.0781 9.19303C41.8887 9.18389 39.7169 9.58528 37.6754 10.3764L36.7224 6.53974C38.6781 5.73317 41.7363 5.16638 44.5546 5.16638C51.0944 5.16638 54.3954 8.52971 54.3954 14.5463V28.146C52.3868 29.2826 49.0826 30.3259 44.6013 30.3259ZM49.665 25.7294V19.5228C48.1974 19.1481 46.689 18.9567 45.1743 18.9529C42.2127 18.9529 40.0172 19.9961 40.0172 22.9328C40.0172 25.446 41.8328 26.7228 45.0311 26.7228C47.2297 26.7228 48.7712 26.2494 49.665 25.7294Z" fill="#252D69"/>
</svg>
