<svg width="59" height="59" viewBox="0 0 59 59" fill="none" xmlns="http://www.w3.org/2000/svg">
<rect width="59" height="59" rx="10" fill="white"/>
<path d="M15.7217 7C15.7217 18.1195 22.0826 28.7625 24.6269 32.4161C25.263 33.2898 26.2172 33.8457 27.2508 33.8457H43.471C44.5046 33.8457 45.5382 33.2898 46.0948 32.4161C48.6392 28.6831 55 18.0401 55 7H15.7217V7Z" fill="#43A0D6"/>
<path d="M17.1529 34.7196C17.0734 34.6401 16.9939 34.5607 16.9144 34.4019C16.9939 34.5607 17.0734 34.6401 17.1529 34.7196Z" fill="#002C6A"/>
<path d="M3 11.6064H6.81651C7.21406 13.8304 7.92966 16.7691 9.12231 20.1049C7.92966 16.7691 7.21406 13.8304 6.81651 11.6064H3V11.6064Z" fill="#002C6A"/>
<path d="M12.9388 43.5355C13.893 41.947 14.7676 40.3585 15.5627 38.77C14.7676 40.4379 13.893 42.0265 12.9388 43.5355Z" fill="#002C6A"/>
<path d="M17.471 34.9575C16.9939 35.9106 16.5169 36.9432 16.0398 37.8963C16.5169 36.9432 16.9939 35.99 17.471 34.9575Z" fill="#002C6A"/>
<path d="M29.8746 15.0221C31.0673 10.2566 31.4648 7.07959 31.4648 7.07959H25.8196C25.5015 9.9389 24.8654 13.1159 24.0703 16.4518C23.9908 16.69 23.9113 16.9283 23.9113 17.1666C23.1162 20.1848 22.1621 23.3618 20.9694 26.5388C20.5719 27.6507 20.0948 28.7627 19.6972 29.8746C19.6177 29.7952 19.5382 29.7158 19.5382 29.6364C19.4587 29.5569 19.4587 29.5569 19.3792 29.4775C18.4251 27.889 16.9144 25.3474 15.5627 21.9321C15.5627 21.8527 15.4832 21.7733 15.4832 21.6938C15.3242 21.2173 15.0856 20.7407 14.9266 20.1848C13.5749 16.5312 12.3823 12.0834 11.9052 7.07959V7.07959H3V11.5274H6.81651C7.21406 13.7513 7.92966 16.69 9.12232 20.0259C10.633 24.3149 12.9388 29.1598 16.5168 33.8459C16.6758 34.0048 16.8349 34.243 16.9939 34.4019C17.0734 34.4813 17.1529 34.6402 17.2324 34.7196C17.3119 34.799 17.3914 34.8784 17.4709 34.9579C16.9939 35.911 16.5168 36.9435 16.0398 37.8966C15.8807 38.2143 15.7217 38.4526 15.5627 38.7703C14.6881 40.3588 13.8135 42.0267 12.9388 43.5358H18.107C19.2202 41.7884 20.3333 40.0411 21.2875 38.2143C22.4006 36.1492 23.3547 34.0842 24.2293 32.0985C25.3425 29.4775 26.2966 26.9359 27.0917 24.4737C27.2508 23.9972 27.4098 23.5206 27.5688 23.0441C27.7278 22.5675 27.8868 22.091 28.0459 21.6144C28.4434 20.1848 28.841 18.8345 29.159 17.5637C29.3975 16.7695 29.5566 15.9752 29.7156 15.2604C29.7951 15.181 29.7951 15.1015 29.8746 15.0221Z" fill="#002C6A"/>
<path d="M17.0734 49.5715C17.0734 51.4777 15.5627 52.9868 13.6544 52.9868C11.7462 52.9868 10.2355 51.4777 10.2355 49.5715C10.2355 47.6653 11.7462 46.1562 13.6544 46.1562C15.4832 46.1562 17.0734 47.6653 17.0734 49.5715Z" fill="#002C6A"/>
<path d="M48.003 49.5715C48.003 51.4777 46.4923 52.9868 44.5841 52.9868C42.6758 52.9868 41.1651 51.4777 41.1651 49.5715C41.1651 47.6653 42.6758 46.1562 44.5841 46.1562C46.4923 46.1562 48.003 47.6653 48.003 49.5715Z" fill="#002C6A"/>
</svg>
